<svg version="1.1" id="camera" xmlns="http://www.w3.org/2000/svg" width="24" height="24" viewBox="0 0 24 24" xmlns:m="https://www.mapbox.com">
  <path d="M9,2L7.17,4H4A2,2 0 0,0 2,6V18A2,2 0 0,0 4,20H20A2,2 0 0,0 22,18V6A2,2 0 0,0 20,4H16.83L15,2H9M12,7A5,5 0 0,1 17,12A5,5 0 0,1 12,17A5,5 0 0,1 7,12A5,5 0 0,1 12,7M12,9A3,3 0 0,0 9,12A3,3 0 0,0 12,15A3,3 0 0,0 15,12A3,3 0 0,0 12,9Z"/>
  <m:metadata>
    <m:parameters>
      <m:parameter m:name="fill" m:type="color" m:value="#ffffff"/>
    </m:parameters>
  </m:metadata>
</svg>